<?xml version="1.0" standalone="no"?>
<!DOCTYPE svg PUBLIC "-//W3C//DTD SVG 20010904//EN"
 "http://www.w3.org/TR/2001/REC-SVG-20010904/DTD/svg10.dtd">
<svg version="1.0" xmlns="http://www.w3.org/2000/svg"
 width="800.000000pt" height="800.000000pt" viewBox="0 0 800.000000 800.000000"
 preserveAspectRatio="xMidYMid meet">
<metadata>
Created by potrace 1.11, written by Peter Selinger 2001-2013
</metadata>
<g transform="translate(0.000000,800.000000) scale(0.100000,-0.100000)"
fill="#000000" stroke="none">
<path d="M6555 7873 c-165 -21 -300 -59 -418 -119 -166 -83 -220 -126 -478
-381 l-216 -214 -39 32 c-371 297 -859 362 -1279 169 -136 -63 -290 -173 -386
-277 l-45 -50 -90 13 c-68 10 -384 14 -1372 16 l-1282 3 3 -1330 c2 -1170 5
-1337 18 -1387 l16 -57 -64 -68 c-143 -152 -244 -335 -301 -548 -25 -92 -27
-115 -27 -290 0 -175 2 -198 27 -290 51 -187 113 -316 222 -458 l29 -38 -225
-227 c-267 -270 -336 -357 -407 -513 -125 -275 -146 -583 -59 -874 32 -108
120 -281 192 -376 176 -233 414 -386 711 -461 76 -19 117 -22 265 -22 189 0
267 13 416 69 186 70 283 143 566 423 l236 235 54 -45 c107 -91 269 -179 411
-222 440 -135 896 -22 1220 301 l93 93 69 -17 c64 -16 186 -18 1368 -20 l1297
-4 0 1258 c0 1128 -2 1270 -17 1371 l-16 112 76 78 c118 119 179 203 242 334
136 278 155 623 51 925 -33 98 -106 234 -169 317 -28 38 -56 75 -62 82 -7 9
49 72 215 241 277 281 345 376 420 586 58 165 65 207 65 412 0 166 -3 202 -23
280 -40 157 -91 273 -180 410 -58 88 -225 255 -318 317 -91 61 -231 130 -317
157 -146 46 -367 70 -492 54z m265 -833 c97 -38 171 -106 223 -205 31 -57 32
-65 32 -175 0 -194 53 -129 -755 -935 l-695 -695 330 0 c259 0 344 -4 394 -15
386 -91 442 -601 86 -776 l-70 -34 -1069 -3 c-859 -2 -1071 0 -1078 10 -12 20
-10 2010 3 2088 29 182 160 318 340 351 79 14 163 2 245 -35 63 -29 152 -114
183 -174 46 -91 51 -135 51 -497 l0 -340 698 697 c383 383 713 704 732 714
116 58 240 67 350 24z m-3258 -827 c92 -43 160 -110 203 -197 102 -207 19
-444 -192 -548 l-68 -33 -460 -5 -460 -5 -5 -455 c-4 -296 -10 -466 -17 -487
-65 -183 -269 -307 -452 -275 -173 31 -309 163 -341 333 -11 59 -14 1692 -3
1703 4 3 394 5 867 4 l861 -3 67 -32z m248 -1553 l0 -460 -465 0 c-256 0 -465
2 -465 4 0 2 16 38 36 81 60 130 74 223 74 498 l0 237 213 0 c116 0 253 5 302
10 87 10 214 46 265 75 14 8 28 14 33 15 4 0 7 -207 7 -460z m-2 -1932 l-3
-1073 -32 -67 c-153 -324 -593 -324 -746 0 l-32 67 -5 393 -5 394 -535 -544
c-294 -299 -609 -618 -699 -711 -90 -92 -185 -180 -210 -197 -143 -91 -334
-65 -470 65 -39 37 -68 77 -87 118 -26 56 -29 72 -29 172 0 184 -55 116 747
920 384 385 698 704 698 708 0 4 -145 7 -323 7 -268 0 -333 3 -378 16 -149 44
-259 167 -289 325 -27 139 40 308 158 393 48 36 133 71 187 79 17 2 486 5
1043 6 l1012 1 -2 -1072z m1472 1055 c-19 -9 -54 -25 -78 -36 -51 -23 -108
-88 -136 -154 -18 -43 -20 -76 -24 -328 -2 -200 -7 -282 -15 -287 -7 -4 -120
-8 -253 -8 -275 0 -340 -11 -477 -78 -42 -21 -80 -36 -82 -33 -7 7 -6 907 1
925 6 14 63 16 553 15 509 0 544 -1 511 -16z m720 -13 c114 -44 197 -128 242
-245 l23 -60 3 -858 2 -858 -858 3 -858 3 -75 37 c-93 46 -158 112 -202 206
-28 60 -32 77 -32 157 0 71 5 103 24 152 33 87 120 182 209 225 l67 33 447 3
448 3 0 427 c0 456 3 490 51 584 47 92 173 187 279 209 57 13 171 2 230 -21z"/>
</g>
</svg>
